<svg xmlns="http://www.w3.org/2000/svg" data-name="Camada 1" viewBox="0 0 100 100"><path fill="#ccc" stroke="#ccc" d="M66.42063 25.19626H91.61689V0H85.61038V14.19746A50.05167 50.05167 0 1 0 46.10564 99.90028l.54356-5.98109A44.0485 44.0485 0 1 1 82.10071 19.18975H66.42063zM53.62258 94.00718L54.01558 100a50.06189 50.06189 0 0 0 10.746-1.89463l-1.68347-5.766A44.11088 44.11088 0 0 1 53.62258 94.00718zM68.49417 90.35967l2.42841 5.49423a50.04765 50.04765 0 0 0 9.436-5.47664l-3.56245-4.83532A44.03011 44.03011 0 0 1 68.49417 90.35967zM81.20815 81.82307l4.16076 4.33087a50.33763 50.33763 0 0 0 7.0027-8.36747L87.374 74.45473A44.41638 44.41638 0 0 1 81.20815 81.82307zM93.51836 60.42585a43.766 43.766 0 0 1-3.2633 9.02834l5.39061 2.64936a49.76209 49.76209 0 0 0 3.71105-10.26992z"/></svg>